<svg xmlns="http://www.w3.org/2000/svg" viewBox="0 0 35 35">
    <path d="M25.302 0H9.698c-1.3 0-2.364 1.063-2.364 2.364v30.27C7.334 33.937 8.398 35 9.698 35h15.604c1.3 0 2.364-1.062 2.364-2.364V2.364c0-1.3-1.064-2.364-2.364-2.364zM15.004 1.704h4.992c.158 0 .286.128.286.287 0 .16-.128.287-.286.287h-4.992c-.158 0-.286-.128-.286-.286 0-.158.128-.286.286-.286zM17.5 33.818c-.653 0-1.182-.53-1.182-1.183s.53-1.182 1.182-1.182 1.182.528 1.182 1.182-.53 1.183-1.182 1.183zm8.52-3.193H8.98V3.75h17.04v26.875z" fill="#fff"/>
</svg>